<?xml version="1.0" encoding="UTF-8" standalone="no"?>
<svg
   version="1.1"
   id="Layer_1"
   x="0px"
   y="0px"
   width="1830"
   viewBox="0 0 1830 560"
   enable-background="new 0 0 2048 2048"
   xml:space="preserve"
   sodipodi:docname="Spectra.bg.svg"
   inkscape:version="1.4 (e7c3feb1, 2024-10-09)"
   height="560"
   xmlns:inkscape="http://www.inkscape.org/namespaces/inkscape"
   xmlns:sodipodi="http://sodipodi.sourceforge.net/DTD/sodipodi-0.dtd"
   xmlns="http://www.w3.org/2000/svg"
   xmlns:svg="http://www.w3.org/2000/svg"><defs
   id="defs17" /><sodipodi:namedview
   id="namedview17"
   pagecolor="#ffffff"
   bordercolor="#000000"
   borderopacity="0.25"
   inkscape:showpageshadow="2"
   inkscape:pageopacity="0.0"
   inkscape:pagecheckerboard="true"
   inkscape:deskcolor="#d1d1d1"
   inkscape:zoom="0.47434508"
   inkscape:cx="917.05388"
   inkscape:cy="178.14035"
   inkscape:window-width="1456"
   inkscape:window-height="1028"
   inkscape:window-x="0"
   inkscape:window-y="39"
   inkscape:window-maximized="0"
   inkscape:current-layer="Layer_1" />
<path
   fill="#FFFFFF"
   opacity="1"
   stroke="none"
   d="m 1062.7047,2030.7441 c -364.99999,0 -729.49999,0 -1093.999987,0 0,-682.6666 0,-1365.33323 0,-2047.999914 682.666687,0 1365.333387,0 2047.999987,0 0,682.666684 0,1365.333314 0,2047.999914 -317.8334,0 -635.6666,0 -954,0 m 520.202,-1090.79527 c 0,0 -0.2804,-0.27917 -0.3283,-1.07208 6.3249,-17.85449 12.0311,-35.95899 19.1206,-53.50464 10.5482,-26.10535 22.0742,-51.81567 33.1829,-77.69458 2.2834,-5.31885 5.0896,-10.49536 6.6017,-16.02545 0.6698,-2.44922 -0.5754,-6.12921 -2.1891,-8.35187 -3.6176,-4.98309 -9.6154,-5.33453 -15.1999,-6.12347 -17.7626,-2.5094 -35.2482,6.89099 -41.9182,22.89746 -6.9439,16.66369 -14.1669,33.24963 -20.1778,50.25494 -9.8936,27.99078 -19.2391,56.18793 -28.1646,84.50336 -4.9831,15.80841 -8.7743,31.99969 -12.8878,48.07335 -6.746,26.36085 -11.1213,53.01295 -9.0973,80.37955 1.4157,19.1421 7.6316,36.448 20.859,50.5495 4.4476,4.7418 10.0061,9.563 15.9836,11.5254 14.5193,4.7673 29.6741,5.799 44.7263,1.6763 20.7558,-5.685 36.3561,-19.0037 49.7716,-34.9832 13.8266,-16.4693 23.3634,-35.3945 29.4961,-56.0306 0.4683,-1.5752 1.5721,-3.9699 2.7005,-4.1691 5.4081,-0.9537 10.9264,-1.2822 15.3602,-1.7279 0,13.4107 -0.7369,27.0154 0.2009,40.5036 0.9999,14.3809 5.9966,27.8447 16.7185,37.9365 16.1288,15.1809 39.1313,15.3214 57.741,4.1395 5.0861,-3.056 9.6002,-7.0638 15.202,-11.2517 -1.4024,5.248 -2.7906,9.4813 -3.617,13.8214 -0.742,3.8962 -2.7112,6.3201 -6.0135,8.554 -10.5177,7.1141 -20.846,14.5218 -31.0478,22.0858 -15.6788,11.6247 -30.4443,24.2773 -42.4564,39.8243 -16.4408,21.2793 -28.019,44.1781 -25.7942,72.2737 1.6767,21.1735 16.1094,34.9907 35.1985,37.8931 26.7669,4.0694 46.0744,-10.2654 63.2243,-28.2288 8.2234,-8.6134 14.1465,-18.948 19.8139,-29.4481 11.5069,-21.3194 18.7805,-44.2273 25.2264,-67.349 3.7296,-13.3781 5.3806,-27.3356 8.7599,-41.1196 2.3155,-1.3409 4.6311,-2.6817 7.0896,-4.1054 -2.0493,-2.6415 -1.1604,-4.4303 2.4666,-4.8638 3.2785,-0.3918 5.5026,-1.7627 6.2294,-5.26 0.4797,-2.3078 1.4227,-3.0957 4.2638,-1.9333 1.5794,0.6461 5.0522,-0.8279 6.311,-2.4213 2.7465,-3.4768 4.6235,-7.6405 6.8194,-11.4608 1.811,0.8549 2.8079,1.3254 3.567,1.6838 4.5945,-7.612 9.01,-14.9275 13.5734,-22.4879 0.6881,0.3443 1.656,0.8284 2.1698,1.0855 6.1559,-4.4254 5.1732,-10.373 4.1833,-17.0395 9.1369,-13.8574 17.4374,-28.1926 22.2349,-44.1656 1.3092,-4.3589 1.5618,-9.5566 0.556,-13.9725 -1.691,-7.42415 -12.1679,-9.86615 -17.1876,-4.1477 -2.8462,3.2424 -4.5951,7.5044 -6.5779,11.4383 -8.7508,17.3623 -17.9919,34.4221 -30.3047,49.596 -5.2872,6.5156 -10.7436,12.8939 -16.1232,19.3344 -0.5545,-2.4553 -0.3965,-4.4388 0.097,-6.3347 8.0262,-30.801 15.8368,-61.662 24.2518,-92.35695 5.0371,-18.37349 11.0112,-36.49092 16.6178,-54.70698 1.4021,-4.55585 0.1293,-9.87531 -3.5786,-12.05188 -8.7772,-5.15241 -18.1317,-4.91901 -27.49,-2.01489 -8.4689,2.62817 -13.602,8.63018 -15.6865,17.17773 -0.3671,-0.0822 -0.5873,-0.0642 -0.6812,-0.16443 -0.3372,-0.36078 -0.755,-0.71399 -0.925,-1.15399 -5.6266,-14.55963 -17.4972,-19.95239 -31.8129,-20.52136 -21.5969,-0.85816 -38.667,9.50586 -53.4945,23.93005 -17.5604,17.08295 -29.7439,37.77335 -38.8655,60.37175 -0.5283,1.3088 -1.2411,2.8112 -2.3243,3.5829 -5.444,3.87805 -11.4453,6.35035 -18.8993,6.70715 0.4757,-5.55597 0.9008,-10.65795 1.3513,-15.75765 1.3828,-15.6531 -2.8104,-30.16282 -8.5567,-44.50358 -4.1939,-10.46655 -12.1512,-17.86639 -21.6268,-21.664 -16.2647,-6.51855 -33.306,-6.18799 -48.7808,3.46088 -6.9761,4.34973 -13.087,10.08691 -19.8631,14.90808 M 395.67569,1267.4364 c 6.86404,-47.411 14.60977,-94.6554 26.55017,-141.7461 0.54373,1.1576 0.96695,1.7149 1.06918,2.3261 3.05393,18.2577 21.62741,28.988 39.87607,29.6823 17.75449,0.6755 32.83884,-5.9284 46.33621,-16.6449 19.75708,-15.6865 34.09351,-35.5938 44.4126,-58.5116 0.57721,-1.2819 1.51581,-2.8296 2.68707,-3.3489 10.02442,-4.4431 20.14142,-8.6773 29.43903,-12.6369 0.8736,9.7823 0.95715,20.0095 2.85767,29.8872 3.08404,16.0291 10.37567,30.1903 23.31085,40.68 19.5415,15.8473 41.89849,16.7117 64.71386,9.99 21.55072,-6.349 40.11628,-18.3372 55.70807,-34.5986 7.2193,-7.5294 13.99945,-15.48 20.75714,-22.9934 2.02881,6.2597 3.60407,13.1113 6.41541,19.4115 7.67163,17.1916 19.84991,30.049 38.64526,34.5839 26.0315,6.2809 50.18317,0.5999 72.3064,-13.9002 15.57617,-10.2091 28.81726,-23.0375 40.05713,-37.9088 1.39624,-1.8473 2.88983,-3.6212 4.6048,-5.7618 1.18817,7.1941 2.0531,13.6231 3.33422,19.9681 4.11866,20.3977 22.95386,35.0558 42.60968,35.3095 14.7594,0.1906 26.3095,-6.3501 37.05382,-14.9235 22.23677,-17.7446 36.45267,-41.7427 49.12417,-66.4885 10.7243,-20.9427 19.8747,-42.697 29.485,-64.19765 1.2345,-2.7619 2.6388,-3.5599 5.414,-3.6985 6.8025,-0.3395 13.5863,-1.0398 20.3828,-1.524 1.8865,-0.1343 3.7908,-0.02 6.4897,-0.02 -0.9553,1.7524 -1.4253,2.5815 -1.8652,3.4262 -10.7258,20.59775 -22.1361,40.91685 -27.8578,63.67945 -4.5933,18.2736 -6.5013,36.4828 -0.1052,54.9739 4.9153,14.2097 19.9549,24.0001 33.166,24.5099 17.2261,0.6648 31.9784,-4.9936 44.7805,-16.0546 11.7472,-10.1495 22.0579,-21.6088 30.1802,-36.1754 1.2032,4.1223 2.1554,7.3867 3.109,10.6509 6.7882,23.2367 22.2697,36.5759 44.5322,37.7657 15.044,0.804 29.1566,-2.5366 40.9378,-12.4106 7.6787,-6.4359 14.7629,-13.5814 21.9983,-20.3023 2.744,7.7495 6.7955,15.4893 13.9127,21.4416 9.6022,8.0306 27.086,6.6301 39.4012,-0.7439 21.4521,-12.8451 35.3407,-32.428 48.1763,-52.9355 5.1614,-8.2459 9.7841,-16.9315 13.6506,-25.8512 2.7984,-6.4554 4.4851,-13.5354 5.6601,-20.5067 0.941,-5.5824 -2.7731,-11.1788 -6.9189,-12.7519 -5.2203,-1.9811 -10.1843,-0.2808 -14.2769,5.2616 -1.8633,2.5233 -3.412,5.3226 -4.7967,8.1469 -3.4298,6.9967 -6.3105,14.287 -10.0881,21.0833 -6.8223,12.2737 -12.4374,25.589 -24.9584,33.5858 -2.5404,1.6226 -5.6867,2.6201 -8.6844,3.1162 -3.3036,0.5464 -5.9173,-0.8463 -5.8078,-4.8605 0.1214,-4.4425 -0.3779,-9.0432 0.6021,-13.2965 4.162,-18.0662 8.7325,-36.0391 13.2364,-54.0256 2.1314,-8.51157 4.3653,-16.99955 6.6994,-25.45785 4.4957,-16.29146 9.2258,-32.51973 13.5455,-48.85701 0.8915,-3.37158 1.2976,-7.15301 -2.6261,-9.80585 -13.3108,-8.99957 -36.3237,-4.02197 -44.3501,9.8277 -1.2969,2.23773 -2.1588,4.72742 -3.2786,7.22736 -0.5208,-0.42883 -1.0136,-0.66223 -1.247,-1.05127 -12.6149,-21.0307 -31.2398,-24.12097 -52.8124,-17.95795 -19.5234,5.57752 -34.5339,18.33783 -46.5923,34.16345 -12.2046,16.01757 -22.5294,33.35977 -29.1893,52.48872 -6.2512,17.9554 -14.2506,34.9859 -24.3561,51.052 -6.9021,10.9731 -14.9904,20.7497 -26.9331,26.6721 -9.0848,4.5051 -15.7819,1.6479 -16.8746,-8.3561 -0.726,-6.6466 -0.8544,-13.9886 1.2253,-20.1891 5.4119,-16.1352 12.0092,-31.8863 18.4899,-47.6443 3.708,-9.0159 7.9094,-17.84675 12.2613,-26.57515 4.1254,-8.2742 5.1217,-16.4619 0.4898,-24.72118 -2.1701,-3.86938 -4.5459,-7.72851 -7.4373,-11.06469 -4.8757,-5.62592 -10.7323,-7.46631 -18.2818,-4.63886 -7.1109,2.66327 -14.5983,4.59076 -22.0849,5.89881 -6.463,1.12915 -13.1878,3.62512 -19.7593,0.32208 1.3022,-5.35553 2.7846,-10.28998 3.6493,-15.33045 0.8965,-5.22479 1.5096,-10.54217 1.6809,-15.83734 0.263,-8.12494 -1.6574,-15.6391 -8.8193,-20.5661 -7.2764,-5.00586 -16.3433,-4.32171 -25.0721,2.10376 -10.7572,7.91864 -17.5904,18.78912 -22.251,31.16303 -7.5775,20.11749 -3.5634,38.93014 11.8548,53.14584 -5.7794,12.9563 -11.0277,26.45575 -17.6886,39.21805 -8.4228,16.1385 -17.513,31.983 -27.2609,47.3547 -5.502,8.6761 -12.92389,16.049 -23.32579,19.4613 -6.9149,2.2685 -14.423,-0.5912 -15.7363,-7.6532 -1.3772,-7.4063 -2.3791,-15.4103 -1.0478,-22.6967 4.5913,-25.13 9.2913,-50.3197 15.8009,-74.99825 7.218,-27.36464 16.53779,-54.17201 24.79069,-81.26833 2.478,-8.13641 6.4212,-12.65063 15.9792,-14.1001 32.5012,-4.92877 64.7908,-11.25183 97.1625,-17.03564 14.9525,-2.67151 29.8647,-4.45862 44.1632,2.3739 6.9712,-6.46997 10.2182,-17.36719 6.1604,-25.66199 -3.2879,-6.72094 -8.1216,-12.82238 -12.9772,-18.60461 -5.8191,-6.92951 -13.9891,-8.73596 -22.6306,-7.40924 -6.3844,0.98016 -12.7741,2.38586 -18.9249,4.34442 -22.2841,7.09509 -44.4416,14.58661 -66.7045,21.74909 -7.9299,2.5512 -16.0243,4.59112 -25.3274,7.22839 4.6167,-12.38642 8.7159,-23.21051 12.6722,-34.08643 1.5223,-4.18475 3.095,-8.41479 3.9377,-12.76135 0.5965,-3.07642 0.04,-6.29639 -3.6575,-7.86963 -12.5029,-5.32074 -24.9238,-4.49444 -37.2078,0.54492 -8.60819,3.53162 -13.29689,10.86426 -16.74219,18.94593 -6.1669,14.46606 -12.0324,29.0614 -17.9353,43.63855 -0.8905,2.19915 -1.3727,3.89373 -4.51558,4.1253 -14.9259,1.09961 -29.83466,2.47845 -44.72485,3.99933 -9.8263,1.0036 -16.04035,7.01715 -17.86566,16.66589 -2.00977,10.62311 2.40148,15.45001 13.16351,14.71485 13.92602,-0.95136 27.86487,-1.71576 42.34265,-2.59363 -0.52283,1.86835 -0.87457,3.43048 -1.39355,4.935 -11.37037,32.966 -21.01764,66.42808 -29.29712,100.30243 -2.07917,8.5068 -3.71851,17.5806 -7.99237,24.9909 -7.77118,13.4745 -16.78553,26.3495 -26.35798,38.6355 -10.04925,12.8978 -22.75195,22.797 -38.89605,27.492 -10.4671,3.044 -20.84015,4.5029 -30.95374,-1.1024 -13.1485,-7.2872 -15.96521,-19.779 -15.90198,-33.2147 0.12635,-26.8223 6.34864,-52.1194 21.43879,-74.59765 4.67169,-6.9591 10.60284,-13.178 16.55761,-19.1357 4.44678,-4.44875 11.78601,-5.37905 15.23841,-3.12502 3.67315,2.39825 4.88043,7.50362 1.81793,14.62802 -2.84998,6.6302 -7.17945,12.6114 -10.57294,19.02885 -1.06872,2.0211 -2.43884,5.3653 -1.55554,6.6544 2.51337,3.6681 5.55163,7.8964 9.39734,9.5599 11.70135,5.0618 26.53058,-0.088 34.23608,-10.2573 9.3758,-12.37305 12.66687,-26.39225 10.6369,-41.34458 -2.05829,-15.16096 -10.09979,-26.83301 -24.98346,-32.09778 -23.18731,-8.20191 -44.32605,-1.77088 -63.70892,11.27423 -24.52905,16.50866 -38.87176,41.02018 -49.87884,67.57003 -5.70642,13.7641 -10.25141,27.797 -18.7566,40.4561 -12.94561,19.2683 -27.56134,36.2347 -49.05249,46.1265 -12.11932,5.5782 -24.32782,8.4639 -37.39752,2.3442 -9.87005,-4.6214 -14.69403,-12.5819 -17.92572,-22.4568 28.8952,-4.9748 52.88489,-17.9576 72.42499,-38.8255 17.72143,-18.9254 26.66553,-41.37997 25.09082,-67.56085 -1.29645,-21.55566 -16.98096,-35.91723 -38.59003,-36.25964 -25.44482,-0.40308 -46.54132,9.60602 -64.74072,26.43695 -17.16687,15.87619 -28.62213,35.66469 -37.49664,57.07954 -1.39093,3.3564 -2.35437,7.2215 -4.68183,9.7972 -7.50531,8.306 -17.68182,12.5263 -28.19091,17.2152 0.61981,-3.8376 1.12152,-7.0747 1.66766,-10.3042 3.52863,-20.865 4.37164,-41.58135 -2.57648,-62.04825 -6.98541,-20.57707 -22.30237,-32.94225 -42.19922,-32.66753 -16.11993,0.2226 -29.93628,7.00299 -41.84674,17.5304 -4.77121,4.21716 -8.83889,9.23028 -13.22684,13.88113 -0.42584,-0.3419 -0.85168,-0.6837 -1.27752,-1.0255 1.90359,-6.12016 4.01343,-12.18589 5.64822,-18.37693 1.41422,-5.35566 -0.35318,-9.62537 -5.7026,-10.91626 -5.80716,-1.40143 -12.16394,-2.02295 -18.05475,-1.25293 -10.64456,1.39135 -20.71402,5.20581 -25.36673,15.99804 -4.32541,10.03302 -8.14029,20.36008 -11.2338,30.83698 -11.73242,39.73515 -23.24612,79.53705 -34.49881,119.41065 -5.12964,18.1769 -9.84613,36.4912 -14.04443,54.9041 -4.12943,18.111 -7.7796,36.3559 -10.86227,54.673 -2.44852,14.549 -4.32666,29.2607 -5.18015,43.9743 -0.28525,4.9174 2.31793,10.8814 5.44626,14.9467 8.16434,10.6092 19.94623,13.7306 32.91699,12.8408 5.98663,-0.4104 8.78336,-3.4736 9.24496,-9.4395 0.28199,-3.6446 0.7649,-7.2736 1.17704,-11.8129 m 4.53784,-377.72768 c 10.57526,-17.74951 15.76395,-36.89649 14.37283,-57.57886 -0.82358,-12.24512 -3.73367,-24.1875 -10.67004,-34.37805 -16.82694,-24.72138 -41.41696,-35.65259 -70.49976,-36.96613 -27.55804,-1.24456 -53.30179,5.50635 -77.09555,19.65058 -33.64528,20.0003 -56.96107,47.90069 -66.25755,86.46533 -7.08572,29.39386 -2.35939,57.31049 11.36371,83.92462 9.77577,18.95894 24.02113,34.58234 37.67122,50.70259 12.44375,14.6955 25.24655,29.2696 35.97699,45.1876 13.73294,20.3718 18.89898,42.9197 12.35241,67.7528 -10.38324,39.387 -49.49185,64.0195 -86.40919,61.1368 -13.73168,-1.0722 -26.16646,-5.3798 -36.75977,-14.7238 -19.68266,-17.3616 -20.52984,-49.0284 -9.52455,-69.4858 11.35658,-21.1103 29.84697,-30.8249 53.41736,-31.6014 7.25149,-0.2388 11.60525,-5.5178 8.84662,-12.251 -2.12792,-5.1937 -5.20249,-10.7198 -9.42168,-14.2007 -12.41223,-10.2398 -26.90622,-12.4201 -42.65646,-9.0772 -24.07639,5.11 -42.9178,17.9188 -55.68964,38.6107 -17.207707,27.8784 -20.472277,57.7236 -9.83055,88.9962 5.47022,16.0753 14.71404,29.5419 27.98598,39.7739 17.77366,13.7025 38.52188,20.8374 60.6804,22.9683 46.82126,4.5026 88.90946,-6.7326 124.62644,-38.6775 21.57211,-19.2939 35.57867,-42.795 40.82647,-71.2224 7.91196,-42.8588 -6.41159,-79.1613 -34.08917,-111.11905 -13.40326,-15.4761 -27.79999,-30.10555 -40.91138,-45.81569 -7.93432,-9.50696 -15.37371,-19.77076 -21.10223,-30.70709 -14.06631,-26.85407 -15.0108,-54.34589 1.43195,-80.63294 16.27069,-26.01184 39.86447,-40.30817 71.18686,-38.41418 20.25509,1.2246 35.23898,14.0982 33.63012,36.85235 -0.89609,12.67371 -5.34515,23.9892 -13.50976,33.66889 -9.05271,10.73272 -19.26267,19.74475 -34.10788,21.57037 -4.8154,0.59216 -8.69092,3.30548 -8.51993,8.76526 0.29227,9.33307 3.84076,17.20025 12.29645,21.97919 13.67123,7.72674 27.90396,7.7373 42.26117,2.19274 16.47097,-6.36114 28.50564,-17.95239 38.12811,-33.34643 M 1480.5658,1079.4022 c -3.5227,-5.3488 -8.6532,-8.5424 -14.5054,-10.7191 -17.5245,-6.5183 -37.5967,4.7999 -44.3649,22.5217 -8.3393,21.8356 7.0311,44.1113 28.0818,46.2352 16.8178,1.697 32.6078,-7.7148 37.4328,-25.0219 3.2909,-11.8044 1.1935,-22.6482 -6.6443,-33.0159 m 343.5504,53.8236 c 0,0 0.1114,-0.067 0,0 z"
   id="path1"
   style="fill:none" />















<g
   id="g17"
   transform="translate(-113.03351,-123.21549)"><path
     fill="#040505"
     opacity="1"
     stroke="none"
     d="m 427.96124,644.27496 c -0.4024,4.0878 -0.88531,7.7168 -1.1673,11.3614 -0.4616,5.9659 -3.25833,9.0291 -9.24496,9.4395 -12.97076,0.8898 -24.75265,-2.2316 -32.91699,-12.8408 -3.12833,-4.0653 -5.73151,-10.0293 -5.44626,-14.9467 0.85349,-14.7136 2.73163,-29.4253 5.18015,-43.9743 3.08267,-18.3171 6.73284,-36.562 10.86227,-54.673 4.1983,-18.4129 8.91479,-36.7272 14.04443,-54.9041 11.25269,-39.8736 22.76639,-79.6755 34.49881,-119.4107 3.09351,-10.4769 6.90839,-20.80399 11.2338,-30.83701 4.65271,-10.79223 14.72217,-14.60669 25.36673,-15.99804 5.89081,-0.77002 12.24759,-0.1485 18.05475,1.25293 5.34942,1.29089 7.11682,5.5606 5.7026,10.91626 -1.63479,6.19104 -3.74463,12.25677 -5.64822,18.37689 0.42584,0.34186 0.85168,0.68365 1.27752,1.02551 4.38795,-4.65082 8.45563,-9.66394 13.22684,-13.8811 11.91046,-10.52741 25.72681,-17.3078 41.84674,-17.5304 19.89685,-0.27472 35.21381,12.09046 42.19922,32.66754 6.94812,20.46692 6.10511,41.18332 2.57648,62.04832 -0.54614,3.2295 -1.04785,6.4666 -1.66766,10.3042 10.50909,-4.6889 20.6856,-8.9092 28.19091,-17.2152 2.32746,-2.5757 3.2909,-6.4408 4.68183,-9.7972 8.87451,-21.4149 20.32977,-41.20346 37.49664,-57.07962 18.1994,-16.83093 39.2959,-26.84003 64.74072,-26.43695 21.60907,0.34241 37.29358,14.70398 38.59003,36.25964 1.57471,26.18093 -7.36939,48.63553 -25.09082,67.56093 -19.5401,20.8679 -43.52979,33.8507 -72.42499,38.8255 3.23169,9.8749 8.05567,17.8354 17.92572,22.4568 13.0697,6.1197 25.2782,3.234 37.39752,-2.3442 21.49115,-9.8918 36.10688,-26.8582 49.05249,-46.1265 8.50519,-12.6591 13.05018,-26.692 18.7566,-40.4561 11.00708,-26.5499 25.34979,-51.06145 49.87884,-67.57011 19.38287,-13.04511 40.52161,-19.47614 63.70892,-11.27423 14.88367,5.26477 22.92517,16.93682 24.98346,32.09778 2.02997,14.95233 -1.2611,28.97156 -10.6369,41.34466 -7.7055,10.1689 -22.53473,15.3191 -34.23608,10.2573 -3.84571,-1.6635 -6.88397,-5.8918 -9.39734,-9.5599 -0.8833,-1.2891 0.48682,-4.6333 1.55554,-6.6544 3.39349,-6.4175 7.72296,-12.3987 10.57294,-19.02896 3.0625,-7.12433 1.85522,-12.22974 -1.81793,-14.62799 -3.4524,-2.25403 -10.79163,-1.32373 -15.23841,3.125 -5.95477,5.95776 -11.88592,12.17665 -16.55761,19.13575 -15.09015,22.4783 -21.31244,47.7754 -21.43879,74.5977 -0.0632,13.4357 2.75348,25.9275 15.90198,33.2147 10.11359,5.6053 20.48664,4.1464 30.95374,1.1024 16.1441,-4.695 28.8468,-14.5942 38.89605,-27.492 9.57245,-12.286 18.5868,-25.161 26.35798,-38.6355 4.27386,-7.4103 5.9132,-16.4841 7.99237,-24.9909 8.27948,-33.87447 17.92675,-67.33651 29.29712,-100.30251 0.51898,-1.50452 0.87072,-3.06665 1.39355,-4.935 -14.47778,0.87787 -28.41663,1.64227 -42.34265,2.59363 -10.76203,0.73516 -15.17328,-4.09174 -13.16351,-14.71485 1.82531,-9.64874 8.03936,-15.66229 17.86566,-16.66589 14.89019,-1.52088 29.79895,-2.89972 44.72482,-3.99933 3.1429,-0.23157 3.62511,-1.92615 4.51561,-4.1253 5.9029,-14.57715 11.7684,-29.17249 17.9353,-43.63855 3.4453,-8.08167 8.134,-15.41431 16.7422,-18.94593 12.284,-5.03936 24.7049,-5.86566 37.2078,-0.54492 3.697,1.57324 4.254,4.79321 3.6575,7.86963 -0.8427,4.34656 -2.4154,8.5766 -3.9377,12.76135 -3.9563,10.87592 -8.0555,21.70001 -12.6722,34.08643 9.3031,-2.63727 17.3975,-4.67719 25.3274,-7.22839 22.2629,-7.16248 44.4204,-14.654 66.7045,-21.74909 6.1508,-1.95856 12.5405,-3.36426 18.9249,-4.34442 8.6415,-1.32672 16.8115,0.47973 22.6306,7.40924 4.8556,5.78223 9.6893,11.88367 12.9772,18.60461 4.0578,8.2948 0.8108,19.19202 -6.1604,25.66199 -14.2985,-6.83252 -29.2107,-5.04541 -44.1632,-2.3739 -32.3717,5.78381 -64.6613,12.10687 -97.1625,17.03564 -9.558,1.44947 -13.5012,5.96369 -15.9792,14.1001 -8.2529,27.09632 -17.5727,53.90369 -24.7907,81.26836 -6.5096,24.6786 -11.2096,49.8683 -15.8009,74.9983 -1.3313,7.2864 -0.3294,15.2904 1.0478,22.6967 1.3133,7.062 8.8214,9.9217 15.7363,7.6532 10.4019,-3.4123 17.8238,-10.7852 23.3258,-19.4613 9.7479,-15.3717 18.8381,-31.2162 27.2609,-47.3547 6.6609,-12.7623 11.9092,-26.2618 17.6886,-39.2181 -15.4182,-14.21576 -19.4323,-33.02838 -11.8548,-53.14587 4.6606,-12.37391 11.4938,-23.24439 22.251,-31.16303 8.7288,-6.42547 17.7957,-7.10962 25.0721,-2.10376 7.1619,4.927 9.0823,12.44116 8.8193,20.5661 -0.1713,5.29517 -0.7844,10.61255 -1.6809,15.83734 -0.8647,5.04047 -2.3471,9.97492 -3.6493,15.33045 6.5715,3.30304 13.2963,0.80707 19.7593,-0.32208 7.4866,-1.30805 14.974,-3.23554 22.0849,-5.89881 7.5495,-2.82745 13.4061,-0.98706 18.2818,4.63886 2.8914,3.33618 5.2672,7.19531 7.4373,11.06469 4.6319,8.25928 3.6356,16.44696 -0.4898,24.72121 -4.3519,8.7284 -8.5533,17.5593 -12.2613,26.5752 -6.4807,15.758 -13.078,31.5091 -18.4899,47.6443 -2.0797,6.2005 -1.9513,13.5425 -1.2253,20.1891 1.0927,10.004 7.7898,12.8612 16.8746,8.3561 11.9427,-5.9224 20.031,-15.699 26.9331,-26.6721 10.1055,-16.0661 18.1049,-33.0966 24.3561,-51.052 6.6599,-19.129 16.9847,-36.47122 29.1893,-52.4888 12.0584,-15.82562 27.0689,-28.58593 46.5923,-34.16345 21.5726,-6.16302 40.1975,-3.07275 52.8124,17.95795 0.2334,0.38904 0.7262,0.62244 1.247,1.05127 1.1198,-2.49994 1.9817,-4.98963 3.2786,-7.22736 8.0264,-13.84967 31.0393,-18.82727 44.3501,-9.8277 3.9237,2.65284 3.5176,6.43427 2.6261,9.80585 -4.3197,16.33728 -9.0498,32.56555 -13.5455,48.85704 -2.3341,8.4583 -4.568,16.9463 -6.6994,25.4579 -4.5039,17.9865 -9.0744,35.9594 -13.2364,54.0256 -0.98,4.2533 -0.4807,8.854 -0.6021,13.2965 -0.1095,4.0142 2.5042,5.4069 5.8078,4.8605 2.9977,-0.4961 6.144,-1.4936 8.6844,-3.1162 12.521,-7.9968 18.1361,-21.3121 24.9584,-33.5858 3.7776,-6.7963 6.6583,-14.0866 10.0881,-21.0833 1.3847,-2.8243 2.9334,-5.6236 4.7967,-8.1469 4.0926,-5.5424 9.0566,-7.2427 14.2769,-5.2616 4.1458,1.5731 7.8599,7.1695 6.9189,12.7519 -1.175,6.9713 -2.8617,14.0513 -5.6601,20.5067 -3.8665,8.9197 -8.4892,17.6053 -13.6506,25.8512 -12.8356,20.5075 -26.7242,40.0904 -48.1763,52.9355 -12.3152,7.374 -29.799,8.7745 -39.4012,0.7439 -7.1172,-5.9523 -11.1687,-13.6921 -13.9127,-21.4416 -7.2354,6.7209 -14.3196,13.8664 -21.9983,20.3023 -11.7812,9.874 -25.8938,13.2146 -40.9378,12.4106 -22.2625,-1.1898 -37.744,-14.529 -44.5322,-37.7657 -0.9536,-3.2642 -1.9058,-6.5286 -3.109,-10.6509 -8.1223,14.5666 -18.433,26.0259 -30.1802,36.1754 -12.8021,11.061 -27.5544,16.7194 -44.7805,16.0546 -13.2111,-0.5098 -28.2507,-10.3002 -33.166,-24.5099 -6.3961,-18.4911 -4.4881,-36.7003 0.1052,-54.9739 5.7217,-22.7626 17.132,-43.0817 27.8578,-63.6795 0.4399,-0.8447 0.9099,-1.6738 1.8652,-3.4262 -2.6989,0 -4.6032,-0.114 -6.4897,0.02 -6.7965,0.4842 -13.5803,1.1845 -20.3828,1.524 -2.7752,0.1386 -4.1795,0.9366 -5.414,3.6985 -9.6103,21.5007 -18.7607,43.255 -29.485,64.1977 -12.6715,24.7458 -26.8874,48.7439 -49.1242,66.4885 -10.7443,8.5734 -22.2944,15.1141 -37.0538,14.9235 -19.65582,-0.2537 -38.49102,-14.9118 -42.60968,-35.3095 -1.28112,-6.345 -2.14605,-12.774 -3.33422,-19.9681 -1.71497,2.1406 -3.20856,3.9145 -4.6048,5.7618 -11.23987,14.8713 -24.48096,27.6997 -40.05713,37.9088 -22.12323,14.5001 -46.2749,20.1811 -72.3064,13.9002 -18.79535,-4.5349 -30.97363,-17.3923 -38.64526,-34.5839 -2.81134,-6.3002 -4.3866,-13.1518 -6.41541,-19.4115 -6.75769,7.5134 -13.53784,15.464 -20.75714,22.9934 -15.59179,16.2614 -34.15735,28.2496 -55.70807,34.5986 -22.81537,6.7217 -45.17236,5.8573 -64.71386,-9.99 -12.93518,-10.4897 -20.22681,-24.6509 -23.31085,-40.68 -1.90052,-9.8777 -1.98407,-20.1049 -2.85767,-29.8872 -9.29761,3.9596 -19.41461,8.1938 -29.43903,12.6369 -1.17126,0.5193 -2.10986,2.067 -2.68707,3.3489 -10.31909,22.9178 -24.65552,42.8251 -44.4126,58.5116 -13.49737,10.7165 -28.58172,17.3204 -46.33621,16.6449 -18.24866,-0.6943 -36.82214,-11.4246 -39.87607,-29.6823 -0.10223,-0.6112 -0.52545,-1.1685 -1.06918,-2.3261 -11.9404,47.0907 -19.68613,94.3351 -26.55991,142.1976 M 1318.9713,334.45617 c -9.9326,4.78498 -17.0609,12.80536 -22.9408,21.63971 -16.9442,25.45828 -25.3081,53.60288 -23.743,84.28178 0.2956,5.7963 2.3561,11.6667 4.4789,17.1644 2.7077,7.0126 8.7606,9.1841 15.4818,5.6515 4.2009,-2.208 8.0637,-5.245 11.6543,-8.3933 10.1779,-8.9241 15.2275,-21.1299 20.8281,-33.0354 9.5037,-20.2024 15.8458,-41.3102 17.4271,-63.5416 0.4208,-5.9154 -1.7218,-12.52081 -4.3436,-18.01977 -3.4787,-7.29596 -11.2995,-9.27472 -18.8428,-5.74732 m -770.98204,64.90459 c -0.57093,-7.937 -0.68433,-15.941 -1.83454,-23.7933 -1.29034,-8.8093 -5.54418,-13.6127 -12.4732,-13.9135 -3.71106,-0.1612 -7.8562,1.2185 -11.21539,3.0095 -9.8111,5.2309 -16.32724,13.9908 -22.43943,22.9223 -14.73913,21.5373 -24.63971,45.3122 -31.86587,70.2751 -0.22541,0.7786 -0.0285,1.6794 -0.0285,1.7498 7.78931,-3.7739 15.16669,-8.5261 23.24195,-11.0039 14.69226,-4.5083 29.76687,-7.8045 44.75906,-11.2731 3.09668,-0.7165 4.70172,-1.9615 5.29413,-4.9123 2.15051,-10.7115 4.33276,-21.4164 6.56183,-33.0606 m 141.13299,-17.4907 c -5.92254,12.1212 -11.01892,24.5041 -12.75653,38.9054 20.40424,-6.751 37.36048,-16.8507 48.52594,-34.7295 4.86749,-7.794 7.93006,-16.4628 6.90625,-25.9835 -0.79828,-7.42398 -6.57245,-11.3218 -13.44476,-8.67288 -3.48615,1.34375 -6.73627,3.55786 -9.74225,5.84052 -8.37311,6.35836 -13.74341,15.20286 -19.48865,24.63996 m -170.68127,99.1459 c 2.49426,-4.531 4.98859,-9.0622 7.94452,-14.4317 -7.22437,1.6945 -13.59339,2.7697 -19.67981,4.7248 -7.16367,2.3009 -14.22775,5.5571 -17.18457,13.1003 -1.24359,3.1727 -1.58588,7.8722 -0.0826,10.6624 2.05084,3.8065 6.64706,3.5219 10.70471,1.8184 7.60809,-3.1941 13.121,-8.7851 18.29776,-15.8742 m -51.1406,-19.5258 c 0.17078,0.011 0.34156,0.022 0.5123,0.033 -0.0792,-0.1022 -0.15841,-0.2044 -0.5123,-0.033 z"
     id="path2" /><path
     fill="#040405"
     opacity="1"
     stroke="none"
     d="m 1855.4053,506.23496 c -2.5866,13.6966 -4.2376,27.6541 -7.9672,41.0322 -6.4459,23.1217 -13.7195,46.0296 -25.2264,67.349 -5.6674,10.5001 -11.5905,20.8347 -19.8139,29.4481 -17.1499,17.9634 -36.4574,32.2982 -63.2243,28.2288 -19.0891,-2.9024 -33.5218,-16.7196 -35.1985,-37.8931 -2.2248,-28.0956 9.3534,-50.9944 25.7942,-72.2737 12.0121,-15.547 26.7776,-28.1996 42.4564,-39.8243 10.2018,-7.564 20.5301,-14.9717 31.0478,-22.0858 3.3023,-2.2339 5.2715,-4.6578 6.0135,-8.554 0.8264,-4.3401 2.2146,-8.5734 3.617,-13.8214 -5.6018,4.1879 -10.1159,8.1957 -15.202,11.2517 -18.6097,11.1819 -41.6122,11.0414 -57.741,-4.1395 -10.7219,-10.0918 -15.7186,-23.5556 -16.7185,-37.9365 -0.9378,-13.4882 -0.2009,-27.0929 -0.2009,-40.5036 -4.4338,0.4457 -9.9521,0.7742 -15.3602,1.7279 -1.1284,0.1992 -2.2322,2.5939 -2.7005,4.1691 -6.1327,20.6361 -15.6695,39.5613 -29.4961,56.0306 -13.4155,15.9795 -29.0158,29.2982 -49.7716,34.9832 -15.0522,4.1227 -30.207,3.091 -44.7263,-1.6763 -5.9775,-1.9624 -11.536,-6.7836 -15.9836,-11.5254 -13.2274,-14.1015 -19.4433,-31.4074 -20.859,-50.5495 -2.024,-27.3666 2.3513,-54.0187 9.0973,-80.3796 4.1135,-16.07369 7.9047,-32.26497 12.8878,-48.07338 8.9255,-28.31543 18.271,-56.51258 28.1646,-84.50336 6.0109,-17.00531 13.2339,-33.59125 20.1778,-50.25494 6.67,-16.00647 24.1556,-25.40686 41.9182,-22.89746 5.5845,0.78894 11.5823,1.14038 15.1999,6.12347 1.6137,2.22266 2.8589,5.90265 2.1891,8.35187 -1.5121,5.53009 -4.3183,10.7066 -6.6017,16.02545 -11.1087,25.87891 -22.6347,51.58923 -33.1829,77.69458 -7.0895,17.54565 -12.7957,35.65015 -19.3847,53.98975 -0.2558,0.77795 -0.2478,1.07086 -0.2397,1.3637 0.3684,-0.16339 0.7365,-0.32684 1.1048,-0.49023 6.5034,-5.10767 12.6143,-10.84485 19.5904,-15.19458 15.4748,-9.64887 32.5161,-9.97943 48.7808,-3.46088 9.4756,3.79761 17.4329,11.19745 21.6268,21.664 5.7463,14.34076 9.9395,28.85047 8.5567,44.50361 -0.4505,5.0997 -0.8756,10.2017 -1.3513,15.7577 7.454,-0.3568 13.4553,-2.8291 18.8993,-6.7072 1.0832,-0.7717 1.796,-2.2741 2.3243,-3.5829 9.1216,-22.59846 21.3051,-43.28883 38.8655,-60.37178 14.8275,-14.42419 31.8976,-24.78821 53.4945,-23.93005 14.3157,0.56897 26.1863,5.96173 31.8129,20.52136 0.17,0.44 0.5878,0.79321 0.925,1.15399 0.094,0.10028 0.3141,0.0823 0.6812,0.16443 2.0845,-8.54755 7.2176,-14.54956 15.6865,-17.17773 9.3583,-2.90412 18.7128,-3.13752 27.49,2.01489 3.7079,2.17657 4.9807,7.49603 3.5786,12.05188 -5.6066,18.21606 -11.5807,36.33349 -16.6178,54.70701 -8.415,30.695 -16.2256,61.556 -24.2518,92.357 -0.494,1.8959 -0.652,3.8794 -0.097,6.3347 5.3796,-6.4405 10.836,-12.8188 16.1232,-19.3344 12.3128,-15.1739 21.5539,-32.2337 30.3047,-49.596 1.9828,-3.9339 3.7317,-8.1959 6.5779,-11.4383 5.0197,-5.7185 15.4966,-3.2765 17.1876,4.1477 1.0058,4.4159 0.7532,9.6136 -0.556,13.9725 -4.7975,15.973 -13.098,30.3082 -22.6254,44.6772 -6.5094,8.3708 -12.5274,16.3108 -18.7699,24.0706 -10.3707,12.8916 -22.9898,23.4286 -36.1504,33.942 -0.7445,2.235 -1.1658,4.2455 -1.7343,6.4303 -0.2384,0.7614 -0.3297,1.3484 -0.4209,1.9356 m -53.4416,-165.6472 c -1.7168,2.23462 -3.6378,4.34223 -5.1189,6.72339 -14.8199,23.82481 -21.5687,50.05601 -22.6959,77.85201 -0.3114,7.68 0.3544,15.5694 5.6192,21.6542 2.3485,2.7141 6.7121,5.8311 9.6629,5.3949 4.9253,-0.7281 10.3025,-3.2582 13.9381,-6.6786 5.095,-4.7932 9.2279,-10.8117 12.9613,-16.8107 10.534,-16.9266 16.5152,-35.6318 20.8804,-54.9885 2.8679,-12.7168 4.9638,-25.34768 2.9009,-38.41134 -1.6605,-10.51606 -9.3633,-14.96363 -19.2181,-10.73645 -7.6842,3.29608 -13.715,8.63391 -18.9299,16.00109 m -203.5692,108.3441 c 3.1949,3.4921 5.9511,7.6201 9.7482,10.239 2.2939,1.5821 6.8389,2.0815 9.2582,0.8602 5.5149,-2.7839 11.2091,-6.1476 15.2833,-10.6696 10.816,-12.0043 17.1082,-26.7435 22.3342,-41.8461 2.8262,-8.1668 6.0155,-16.6207 -0.6673,-24.6701 -0.2869,-0.3456 -0.2149,-0.967 -0.3957,-1.4263 -5.1752,-13.1494 -3.8341,-26.7593 -2.6793,-40.30757 0.5607,-6.58021 -2.4355,-9.55378 -8.885,-7.73731 -2.5008,0.70441 -4.9161,2.02118 -7.1094,3.45746 -11.2335,7.35632 -18.8304,18.17834 -23.7938,30.02112 -5.9092,14.1 -10.0836,29.0406 -13.767,43.9245 -3.0394,12.2822 -3.3109,24.9983 0.6736,38.1547 m 185.4923,136.5974 c 1.7199,-3.7747 3.5147,-7.5175 5.139,-11.3327 1.6826,-3.952 3.2992,-7.9386 4.7609,-11.9764 1.4117,-3.8999 2.7295,-7.8458 3.8299,-11.8428 1.0887,-3.956 1.8537,-8.0011 3.0339,-13.2131 -18.1113,12.8917 -33.1658,26.8343 -45.5863,43.4294 -8.6572,11.5669 -14.9579,24.2957 -16.2734,39.0043 -0.6779,7.5785 5.5092,12.5792 12.396,9.5443 3.6996,-1.6304 7.8337,-3.9175 9.9904,-7.1111 7.8755,-11.661 15.0015,-23.8282 22.7096,-36.5019 z"
     id="path3" /><path
     fill="#040404"
     opacity="1"
     stroke="none"
     d="m 432.29248,266.3908 c -9.40613,15.09894 -21.4408,26.69019 -37.91177,33.05133 -14.35721,5.54456 -28.58994,5.534 -42.26117,-2.19274 -8.45569,-4.77894 -12.00418,-12.64612 -12.29645,-21.97919 -0.17099,-5.45978 3.70453,-8.1731 8.51993,-8.76526 14.84521,-1.82562 25.05517,-10.83765 34.10788,-21.57037 8.16461,-9.67969 12.61367,-20.99518 13.50976,-33.66889 1.60886,-22.75415 -13.37503,-35.62775 -33.63012,-36.85235 -31.32239,-1.89399 -54.91617,12.40234 -71.18686,38.41418 -16.44275,26.28705 -15.49826,53.77887 -1.43195,80.63294 5.72852,10.93633 13.16791,21.20013 21.10223,30.70709 13.11139,15.71014 27.50812,30.3396 40.91138,45.81572 27.67758,31.9578 42.00113,68.2603 34.08917,111.1191 -5.2478,28.4274 -19.25436,51.9285 -40.82647,71.2224 -35.71698,31.9449 -77.80518,43.1801 -124.62644,38.6775 -22.15852,-2.1309 -42.90674,-9.2658 -60.6804,-22.9683 -13.27194,-10.232 -22.51576,-23.6986 -27.98598,-39.7739 -10.64173,-31.2726 -7.37716,-61.1178 9.83055,-88.9962 12.77184,-20.6919 31.61325,-33.5007 55.68964,-38.6107 15.75024,-3.3429 30.24423,-1.1626 42.65646,9.0772 4.21919,3.4809 7.29376,9.007 9.42168,14.2007 2.75863,6.7332 -1.59513,12.0122 -8.84662,12.251 -23.57039,0.7765 -42.06078,10.4911 -53.41736,31.6014 -11.00529,20.4574 -10.15811,52.1242 9.52455,69.4858 10.59331,9.344 23.02809,13.6516 36.75977,14.7238 36.91734,2.8827 76.02595,-21.7498 86.40919,-61.1368 6.54657,-24.8331 1.38053,-47.381 -12.35241,-67.7528 -10.73044,-15.918 -23.53324,-30.4921 -35.97699,-45.1876 -13.65009,-16.1203 -27.89545,-31.74374 -37.67122,-50.70267 -13.7231,-26.61413 -18.44943,-54.53076 -11.36371,-83.92462 9.29648,-38.56464 32.61227,-66.46503 66.25755,-86.46533 23.79376,-14.14423 49.53751,-20.89514 77.09555,-19.65058 29.0828,1.31354 53.67282,12.24475 70.49976,36.96613 6.93637,10.19055 9.84646,22.13293 10.67004,34.37805 1.39112,20.68237 -3.79757,39.82935 -14.58917,57.87396 z"
     id="path4" /><path
     fill="#050505"
     opacity="1"
     stroke="none"
     d="m 1513.067,456.08186 c 7.6319,10.0751 9.7293,20.9189 6.4384,32.7233 -4.825,17.3071 -20.615,26.7189 -37.4328,25.0219 -21.0507,-2.1239 -36.4211,-24.3996 -28.0818,-46.2352 6.7682,-17.7218 26.8404,-29.04 44.3649,-22.5217 5.8522,2.1767 10.9827,5.3703 14.7113,11.0117 z"
     id="path5" /><path
     fill="#f0f0eb"
     opacity="1"
     stroke="none"
     d="m 1857.8838,497.64466 c 12.8373,-10.289 25.4564,-20.826 35.8271,-33.7176 6.2425,-7.7598 12.2605,-15.6998 18.6512,-23.7366 1.4991,5.8209 2.4818,11.7685 -3.6741,16.1939 -0.5138,-0.2571 -1.4817,-0.7412 -2.1698,-1.0855 -4.5634,7.5604 -8.9789,14.8759 -13.5734,22.4879 -0.7591,-0.3584 -1.756,-0.8289 -3.567,-1.6838 -2.1959,3.8203 -4.0729,7.984 -6.8194,11.4608 -1.2588,1.5934 -4.7316,3.0674 -6.311,2.4213 -2.8411,-1.1624 -3.7841,-0.3745 -4.2638,1.9333 -0.7268,3.4973 -2.9509,4.8682 -6.2294,5.26 -3.627,0.4335 -4.5159,2.2223 -2.4666,4.8638 -2.4585,1.4237 -4.7741,2.7645 -7.486,4.1491 -0.3051,-0.5435 -0.2138,-1.1305 0.3724,-2.0738 0.8999,-2.395 1.3049,-4.4339 1.7098,-6.4728 z"
     id="path6" /><path
     fill="#f0f0eb"
     opacity="1"
     stroke="none"
     d="m 1856.4673,509.57916 c 0.056,-0.034 -0.056,0.034 0,0 z"
     id="path7" /><path
     fill="#fbfbf9"
     opacity="1"
     stroke="none"
     d="m 467.43774,461.35306 c 0.21653,-0.035 0.29575,0.067 0.37494,0.1696 -0.17074,-0.011 -0.34152,-0.022 -0.37494,-0.1696 z"
     id="path12" /><path
     fill="#ffffff"
     opacity="1"
     stroke="none"
     d="m 1857.5605,497.86906 c -0.082,1.8145 -0.4866,3.8534 -1.2395,6.0741 0.074,-1.8286 0.495,-3.8391 1.2395,-6.0741 z"
     id="path16" /><path
     fill="#ffffff"
     opacity="1"
     stroke="none"
     d="m 1615.3384,316.47906 c -0.232,0.30664 -0.6001,0.47009 -0.9685,0.63348 -0.01,-0.29284 -0.016,-0.58575 0.2638,-0.96722 0.2879,-0.0887 0.5683,0.19049 0.7047,0.33374 z"
     id="path17" /></g>
</svg>
